HIERARCHY
ROOT Hips
{
	OFFSET 0.00000 0.00000 0.00000
	CHANNELS 6 Xposition Yposition Zposition Zrotation Yrotation Xrotation 
	JOINT LHipJoint
	{
		OFFSET 0 0 0
		CHANNELS 3 Zrotation Yrotation Xrotation
		JOINT LeftUpLeg
		{
			OFFSET 1.58895 -1.83665 0.71753
			CHANNELS 3 Zrotation Yrotation Xrotation
			JOINT LeftLeg
			{
				OFFSET 2.50528 -6.88321 0.00000
				CHANNELS 3 Zrotation Yrotation Xrotation
				JOINT LeftFoot
				{
					OFFSET 2.63244 -7.23257 0.00000
					CHANNELS 3 Zrotation Yrotation Xrotation
					JOINT LeftToeBase
					{
						OFFSET 0.23691 -0.65090 1.72750
						CHANNELS 3 Zrotation Yrotation Xrotation
						End Site
						{
							OFFSET 0.00000 -0.00000 0.92561
						}
					}
				}
			}
		}
	}
	JOINT RHipJoint
	{
		OFFSET 0 0 0
		CHANNELS 3 Zrotation Yrotation Xrotation
		JOINT RightUpLeg
		{
			OFFSET -1.51435 -1.83665 0.71753
			CHANNELS 3 Zrotation Yrotation Xrotation
			JOINT RightLeg
			{
				OFFSET -2.54551 -6.99375 0.00000
				CHANNELS 3 Zrotation Yrotation Xrotation
				JOINT RightFoot
				{
					OFFSET -2.66027 -7.30903 0.00000
					CHANNELS 3 Zrotation Yrotation Xrotation
					JOINT RightToeBase
					{
						OFFSET -0.22981 -0.63138 2.03959
						CHANNELS 3 Zrotation Yrotation Xrotation
						End Site
						{
							OFFSET -0.00000 -0.00000 1.07060
						}
					}
				}
			}
		}
	}
	JOINT LowerBack
	{
		OFFSET 0 0 0
		CHANNELS 3 Zrotation Yrotation Xrotation
		JOINT Spine
		{
			OFFSET -0.02651 1.86275 -0.11152
			CHANNELS 3 Zrotation Yrotation Xrotation
			JOINT Spine1
			{
				OFFSET 0.01019 1.86224 0.04087
				CHANNELS 3 Zrotation Yrotation Xrotation
				JOINT Neck
				{
					OFFSET 0 0 0
					CHANNELS 3 Zrotation Yrotation Xrotation
					JOINT Neck1
					{
						OFFSET -0.01926 1.80512 0.08867
						CHANNELS 3 Zrotation Yrotation Xrotation
						JOINT Head
						{
							OFFSET 0.05516 1.76451 -0.38475
							CHANNELS 3 Zrotation Yrotation Xrotation
							End Site
							{
								OFFSET 0.01592 1.82587 -0.14001
							}
						}
					}
				}
				JOINT LeftShoulder
				{
					OFFSET 0 0 0
					CHANNELS 3 Zrotation Yrotation Xrotation
					JOINT LeftArm
					{
						OFFSET 3.47116 1.51376 0.14491
						CHANNELS 3 Zrotation Yrotation Xrotation
						JOINT LeftForeArm
						{
							OFFSET 4.78095 -0.00000 0.00000
							CHANNELS 3 Zrotation Yrotation Xrotation
							JOINT LeftHand
							{
								OFFSET 3.58615 -0.00000 -0.00000
								CHANNELS 3 Zrotation Yrotation Xrotation
								JOINT LeftFingerBase
								{
									OFFSET 0 0 0
									CHANNELS 3 Zrotation Yrotation Xrotation
									JOINT LeftHandIndex1
									{
										OFFSET 0.65981 -0.00000 0.00000
										CHANNELS 3 Zrotation Yrotation Xrotation
										End Site
										{
											OFFSET 0.53196 -0.00000 0.00000
										}
									}
								}
								JOINT LThumb
								{
									OFFSET 0 0 0
									CHANNELS 3 Zrotation Yrotation Xrotation
									End Site
									{
										OFFSET 0.54008 -0.00000 0.54008
									}
								}
							}
						}
					}
				}
				JOINT RightShoulder
				{
					OFFSET 0 0 0
					CHANNELS 3 Zrotation Yrotation Xrotation
					JOINT RightArm
					{
						OFFSET -3.31725 1.61216 0.35156
						CHANNELS 3 Zrotation Yrotation Xrotation
						JOINT RightForeArm
						{
							OFFSET -4.48913 -0.00000 0.00000
							CHANNELS 3 Zrotation Yrotation Xrotation
							JOINT RightHand
							{
								OFFSET -3.70510 -0.00000 0.00000
								CHANNELS 3 Zrotation Yrotation Xrotation
								JOINT RightFingerBase
								{
									OFFSET 0 0 0
									CHANNELS 3 Zrotation Yrotation Xrotation
									JOINT RightHandIndex1
									{
										OFFSET -0.44914 -0.00000 0.00000
										CHANNELS 3 Zrotation Yrotation Xrotation
										End Site
										{
											OFFSET -0.36211 -0.00000 0.00000
										}
									}
								}
								JOINT RThumb
								{
									OFFSET 0 0 0
									CHANNELS 3 Zrotation Yrotation Xrotation
									End Site
									{
										OFFSET -0.36763 -0.00000 0.36763
									}
								}
							}
						}
					}
				}
			}
		}
	}
}
MOTION
Frames: 14
Frame Time: .0083333
-1.4089 18.0365 6.1435 -7.5424 12.5223 -2.7453 0.0000 0.0000 0.0000 -6.3427 -2.1908 23.7047 2.2465 -9.3617 -26.9335 -0.4371 13.4711 2.3348 0.8860 -6.0002 -16.7849 0.0000 0.0000 0.0000 24.7290 -12.1550 10.6244 0.0000 -0.0000 0.0000 -1.5844 -4.5576 -25.7906 -0.1087 -2.1254 5.8523 3.7304 2.0979 12.9536 -1.7569 3.2383 -1.1302 -4.6231 1.3607 -8.1804 -8.1481 -11.4440 -11.4897 11.0139 -15.0360 4.1282 3.4198 -7.0395 4.5496 0.0000 0.0000 0.0000 -60.2720 5.5359 39.9428 101.4600 -59.4979 -69.9079 -0.0000 0.0000 -19.9944 5.0432 -16.9394 -1.4729 -7.1250 0.0000 -0.0000 -15.0725 13.3871 11.5900 0.0000 0.0000 0.0000 8.5844 12.9812 3.1976 -45.0221 50.7793 -22.2559 0.0000 0.0000 22.9119 -30.0625 -34.1799 18.0129 7.1250 -0.0000 -0.0000 3.8086 -68.0630 -2.1112
-1.3761 18.0473 6.1164 -7.7298 13.0802 -2.3908 0.0000 0.0000 0.0000 -6.2674 -2.5495 23.1447 2.2674 -9.4022 -27.0618 -0.4042 13.2723 2.7690 0.9556 -6.2251 -17.4388 0.0000 0.0000 0.0000 24.9168 -12.2517 10.0359 0.0000 -0.0000 0.0000 -1.5888 -4.7219 -25.9095 -0.1087 -2.1255 5.8527 3.5815 2.2718 13.0616 -1.5949 3.4616 -1.0279 -4.4087 1.4829 -8.1265 -8.5624 -11.5921 -11.1709 11.1510 -15.2130 4.1286 3.5160 -7.1382 4.5575 0.0000 0.0000 0.0000 -61.1498 6.3217 40.0758 101.1788 -59.5225 -69.6656 -0.0000 0.0000 -19.8919 5.0345 -16.9234 -1.4690 -7.1250 0.0000 -0.0000 -15.0787 13.4030 11.5900 0.0000 0.0000 0.0000 10.6940 11.6957 5.0352 -46.6484 51.5509 -23.5227 0.0000 0.0000 22.5083 -29.8566 -34.0724 17.8272 7.1250 -0.0000 -0.0000 4.0147 -67.8891 -2.2097
-1.3414 18.0567 6.0902 -7.8767 13.6181 -2.0876 0.0000 0.0000 0.0000 -6.2505 -2.9919 22.6949 2.2867 -9.4393 -27.1794 -0.3869 13.1786 3.0099 0.9470 -6.1976 -17.3589 0.0000 0.0000 0.0000 25.0471 -12.3569 9.5287 0.0000 0.0000 -0.0000 -1.5946 -4.8587 -26.0257 -0.1104 -2.1421 5.8985 3.3598 2.3659 13.1350 -1.5173 3.5577 -0.8335 -4.2143 1.5492 -7.9661 -8.5717 -11.6629 -11.1822 11.1866 -15.3227 4.2569 3.5114 -7.1878 4.6130 0.0000 0.0000 0.0000 -61.7745 7.0327 39.8975 100.6233 -59.5692 -69.1867 -0.0000 0.0000 -19.8294 5.0436 -16.8948 -1.4692 -7.1250 0.0000 -0.0000 -15.0742 13.4303 11.5772 0.0000 0.0000 0.0000 12.7438 10.8690 6.8820 -47.9822 52.1485 -24.5716 0.0000 0.0000 21.8240 -29.6151 -33.8743 17.5796 7.1250 -0.0000 -0.0000 4.2015 -67.6111 -2.2861
-1.3044 18.0661 6.0673 -8.0441 14.1006 -1.7951 0.0000 0.0000 0.0000 -6.2025 -3.3370 22.2342 2.3017 -9.4681 -27.2709 -0.3710 13.0883 3.2223 0.8782 -5.9743 -16.7099 0.0000 0.0000 0.0000 25.1901 -12.4142 9.0549 0.0000 -0.0000 0.0000 -1.6106 -4.9422 -26.1864 -0.1146 -2.1823 6.0098 3.2150 2.4871 13.1540 -1.4493 3.6990 -0.5938 -4.0767 1.6369 -7.7184 -8.6944 -11.7943 -11.2680 11.3720 -15.5029 4.3255 3.5564 -7.2646 4.6910 -0.0000 -0.0000 0.0000 -62.2973 7.6000 39.7879 99.9152 -59.6252 -68.5760 -0.0000 0.0000 -19.7028 5.2650 -16.7128 -1.5180 -7.1250 0.0000 -0.0000 -14.9382 13.5941 11.4114 -0.0000 -0.0000 0.0000 14.7023 10.1907 8.6006 -48.9990 52.5837 -25.3769 0.0000 0.0000 21.3530 -29.0001 -33.3429 16.9447 7.1250 -0.0000 -0.0000 4.6527 -66.8780 -2.4541
-1.2653 18.0757 6.0438 -8.2126 14.5629 -1.4812 0.0000 0.0000 0.0000 -6.1623 -3.7059 21.7567 2.3112 -9.4863 -27.3287 -0.3572 13.0197 3.4198 0.8372 -5.8368 -16.3115 0.0000 0.0000 0.0000 25.3316 -12.4395 8.5653 0.0000 0.0000 -0.0000 -1.6267 -5.0509 -26.3611 -0.1195 -2.2284 6.1373 3.1239 2.6552 13.1656 -1.3408 3.9142 -0.3810 -3.9405 1.7577 -7.4900 -9.0395 -11.9954 -11.1456 11.5997 -15.7480 4.2165 3.6532 -7.3862 4.7087 0.0000 -0.0000 0.0000 -62.8766 8.1086 39.8179 99.2370 -59.6751 -67.9907 -0.0000 0.0000 -19.5396 5.6049 -16.3493 -1.5824 -7.1250 0.0000 -0.0000 -14.7326 13.9273 11.1351 0.0000 -0.0000 0.0000 16.4694 9.4322 10.3681 -49.9597 52.9792 -26.1420 0.0000 0.0000 21.0267 -28.3837 -32.8995 16.3564 7.1250 -0.0000 -0.0000 5.1587 -66.2390 -2.6459
-1.2248 18.0851 6.0202 -8.3305 15.0250 -1.1344 0.0000 0.0000 0.0000 -6.1859 -4.1542 21.2852 2.3164 -9.4962 -27.3601 -0.3456 12.9618 3.5825 0.8276 -5.8041 -16.2171 0.0000 0.0000 0.0000 25.4278 -12.4560 8.0642 0.0000 -0.0000 0.0000 -1.6332 -5.2401 -26.5107 -0.1143 -2.1797 6.0026 2.9539 2.8039 13.1752 -1.2401 4.0908 -0.1922 -3.7618 1.8605 -7.2965 -9.2518 -12.1470 -10.9044 11.7490 -15.9328 3.9636 3.7249 -7.4880 4.6407 0.0000 -0.0000 0.0000 -63.3896 8.6711 39.7385 98.7377 -59.7095 -67.5597 -0.0000 0.0000 -19.4979 5.7292 -16.0653 -1.5903 -7.1250 0.0000 -0.0000 -14.6639 14.1960 10.9928 0.0000 -0.0000 0.0000 17.9905 8.8134 12.3609 -50.9468 53.3703 -26.9321 0.0000 0.0000 20.6115 -28.1625 -32.9029 16.2151 7.1250 -0.0000 -0.0000 5.4503 -66.1778 -2.7882
-1.1834 18.0934 5.9985 -8.3794 15.4825 -0.7434 0.0000 0.0000 0.0000 -6.2689 -4.5316 20.7570 2.3216 -9.5061 -27.3916 -0.3265 12.8385 3.8093 0.7998 -5.7081 -15.9398 0.0000 0.0000 0.0000 25.4600 -12.4557 7.5431 0.0000 0.0000 -0.0000 -1.6411 -5.4010 -26.6561 -0.1129 -2.1664 5.9659 2.6974 2.9625 13.2010 -1.1638 4.2662 -0.0361 -3.5631 1.9627 -7.1536 -9.4010 -12.2970 -10.7001 11.9360 -16.1289 3.7398 3.7947 -7.5906 4.5882 0.0000 0.0000 0.0000 -63.7868 9.2599 39.6866 98.3896 -59.7324 -67.2591 -0.0000 0.0000 -19.5111 5.6874 -16.0442 -1.5767 -7.1250 0.0000 -0.0000 -14.6923 14.2188 11.0082 0.0000 0.0000 0.0000 19.4765 8.2852 14.2493 -51.8740 53.7239 -27.6779 0.0000 0.0000 20.3114 -27.7258 -32.8042 15.8942 7.1250 -0.0000 -0.0000 5.9481 -65.9494 -3.0123
-1.1406 18.1017 5.9775 -8.3861 15.9264 -0.3333 0.0000 0.0000 0.0000 -6.3898 -4.8593 20.2200 2.3306 -9.5233 -27.4463 -0.3063 12.7251 4.0699 0.7593 -5.5651 -15.5277 0.0000 0.0000 0.0000 25.4447 -12.4385 7.0223 0.0000 0.0000 -0.0000 -1.6537 -5.5340 -26.8197 -0.1141 -2.1781 5.9982 2.4077 3.1580 13.2753 -1.0895 4.4868 0.0668 -3.3624 2.0843 -7.0966 -9.6604 -12.5007 -10.5197 12.2119 -16.3992 3.6055 3.8935 -7.7241 4.5928 0.0000 -0.0000 0.0000 -64.1697 9.8140 39.7955 98.0507 -59.7537 -66.9663 -0.0000 0.0000 -19.4112 5.7061 -16.0345 -1.5809 -7.1250 0.0000 -0.0000 -14.6805 14.2272 10.9960 0.0000 -0.0000 0.0000 20.9650 7.6770 15.9919 -52.8728 54.0904 -28.4850 0.0000 0.0000 19.8958 -26.9858 -32.5677 15.3287 7.1250 -0.0000 -0.0000 6.7300 -65.4940 -3.3391
-1.0964 18.1096 5.9570 -8.4457 16.3894 0.0405 0.0000 0.0000 0.0000 -6.4688 -5.2412 19.7454 2.3434 -9.5475 -27.5235 -0.2910 12.6830 4.3201 0.7564 -5.5546 -15.4974 0.0000 0.0000 0.0000 25.4723 -12.4512 6.5234 0.0000 -0.0000 0.0000 -1.6670 -5.6899 -27.0012 -0.1045 -2.0842 5.7384 2.2000 3.3415 13.4139 -1.0069 4.7060 0.1314 -3.2060 2.1995 -7.1137 -9.9841 -12.7234 -10.3092 12.5660 -16.7018 3.5067 4.0204 -7.8713 4.6213 0.0000 0.0000 0.0000 -64.5388 10.3558 39.9739 97.7470 -59.7720 -66.7040 -0.0000 0.0000 -19.4183 5.6609 -15.8560 -1.5514 -7.1250 0.0000 -0.0000 -14.7184 14.4029 10.9694 0.0000 0.0000 0.0000 22.4342 7.0999 17.7166 -53.9635 54.4741 -29.3706 0.0000 0.0000 19.1295 -26.3050 -32.5368 14.8891 7.1250 -0.0000 -0.0000 7.5678 -65.2684 -3.7173
-1.0521 18.1168 5.9370 -8.5445 16.9009 0.3687 0.0000 0.0000 0.0000 -6.5049 -5.5875 19.2862 2.3605 -9.5797 -27.6260 -0.2719 12.6089 4.5974 0.7492 -5.5288 -15.4232 0.0000 0.0000 0.0000 25.5329 -12.5239 6.0412 0.0000 0.0000 -0.0000 -1.6855 -5.7924 -27.1887 -0.1045 -2.0847 5.7398 2.0674 3.5032 13.6098 -0.9125 4.9094 0.1919 -3.0816 2.3035 -7.1651 -10.3097 -12.9498 -10.0057 12.9570 -17.0127 3.3146 4.1647 -8.0273 4.6133 0.0000 0.0000 0.0000 -64.8620 10.8546 40.1775 97.3734 -59.7936 -66.3811 -0.0000 0.0000 -19.5371 5.5945 -15.7765 -1.5256 -7.1250 0.0000 -0.0000 -14.7658 14.4837 10.9810 0.0000 0.0000 0.0000 23.8253 6.5638 19.3028 -55.0825 54.8504 -30.2835 0.0000 0.0000 18.0422 -25.4402 -32.3759 14.2906 7.1250 -0.0000 -0.0000 8.5289 -64.8615 -4.1120
-1.0068 18.1231 5.9173 -8.5608 17.4362 0.6983 0.0000 0.0000 0.0000 -6.6154 -5.7287 18.7769 2.3829 -9.6219 -27.7608 -0.2382 12.3803 4.9671 0.7226 -5.4317 -15.1441 0.0000 0.0000 0.0000 25.5025 -12.6310 5.5825 0.0000 0.0000 -0.0000 -1.7054 -5.8505 -27.3605 -0.1270 -2.2974 6.3283 1.9427 3.6682 13.8275 -0.8463 5.1162 0.2487 -2.9951 2.4078 -7.2306 -10.6629 -13.1708 -9.6636 13.3512 -17.3122 3.0684 4.3185 -8.1815 4.5863 -0.0000 0.0000 0.0000 -65.1475 11.2950 40.3902 96.8223 -59.8234 -65.9048 -0.0000 0.0000 -19.3830 5.8801 -15.8197 -1.6082 -7.1250 0.0000 -0.0000 -14.5759 14.4262 10.8482 -0.0000 0.0000 0.0000 25.0846 5.9925 20.7224 -56.2742 55.2325 -31.2601 0.0000 0.0000 16.3154 -24.2204 -31.9045 13.3735 7.1250 -0.0000 -0.0000 9.6776 -64.0493 -4.4875
-0.9594 18.1285 5.8975 -8.5981 17.9715 0.9979 0.0000 0.0000 0.0000 -6.7012 -5.7531 18.2692 2.4087 -9.6699 -27.9144 -0.1938 12.0840 5.4576 0.7261 -5.4447 -15.1813 0.0000 0.0000 0.0000 25.4858 -12.7503 5.1511 0.0000 -0.0000 0.0000 -1.7118 -6.0136 -27.4975 -0.1376 -2.3911 6.5879 1.8239 3.8051 13.9910 -0.7243 5.2892 0.3436 -2.8413 2.4984 -7.2327 -10.8897 -13.3486 -9.4953 13.5104 -17.5416 2.9271 4.3810 -8.3004 4.5781 -0.0000 -0.0000 0.0000 -65.5374 11.7154 40.5060 96.3047 -59.8493 -65.4572 -0.0000 0.0000 -19.1240 6.4858 -15.7475 -1.7672 -7.1250 0.0000 -0.0000 -14.1798 14.4625 10.5222 -0.0000 -0.0000 0.0000 26.1050 5.6197 22.0341 -57.5238 55.6132 -32.2890 0.0000 0.0000 13.4797 -22.4504 -31.5279 12.1923 7.1250 -0.0000 -0.0000 11.5069 -63.1974 -5.1167
-0.9113 18.1331 5.8804 -8.8087 18.3985 1.1598 0.0000 0.0000 0.0000 -6.6023 -5.7327 17.9063 2.4361 -9.7208 -28.0773 -0.1557 11.8443 5.8895 0.7203 -5.4232 -15.1197 0.0000 0.0000 0.0000 25.6251 -12.8077 4.8408 0.0000 -0.0000 0.0000 -1.7088 -6.2557 -27.6169 -0.1280 -2.3059 6.3518 1.7613 3.9445 14.1157 -0.4585 5.4839 0.4896 -2.5656 2.6021 -7.1680 -11.0929 -13.4888 -9.3859 13.5183 -17.7083 2.8399 4.3987 -8.3909 4.5715 -0.0000 0.0000 0.0000 -66.1274 12.1486 40.5176 95.8948 -59.8683 -65.1028 -0.0000 0.0000 -18.9650 6.7342 -15.6981 -1.8299 -7.1250 0.0000 -0.0000 -14.0179 14.4965 10.3837 -0.0000 0.0000 0.0000 26.8529 5.5139 23.2079 -58.7246 55.9604 -33.2820 0.0000 0.0000 9.4670 -19.9347 -31.3147 10.6749 7.1250 -0.0000 -0.0000 14.2442 -62.3330 -6.0675
-0.8653 18.1364 5.8663 -9.0737 18.7380 1.2166 0.0000 0.0000 0.0000 -6.4424 -5.6704 17.6797 2.4674 -9.7783 -28.2617 -0.1259 11.6383 6.2075 0.6874 -5.3007 -14.7684 0.0000 0.0000 0.0000 25.8000 -12.8282 4.6598 0.0000 0.0000 -0.0000 -1.7170 -6.3929 -27.7531 -0.1390 -2.4026 6.6196 2.0266 4.1385 14.4428 -0.3304 5.7987 0.5383 -2.6636 2.7452 -7.2701 -11.3720 -13.6876 -9.0674 13.7396 -17.9853 2.7258 4.4883 -8.5369 4.5658 0.0000 0.0000 0.0000 -66.3889 12.6296 40.7949 95.4876 -59.8859 -64.7506 -0.0000 0.0000 -18.8279 6.6424 -15.7562 -1.8112 -7.1250 0.0000 -0.0000 -14.0761 14.4452 10.4456 0.0000 0.0000 0.0000 27.8958 5.3071 24.0058 -59.6654 56.2201 -34.0628 0.0000 0.0000 4.6842 -16.7639 -30.8406 8.7786 7.1250 -0.0000 -0.0000 17.4056 -61.0842 -6.9392
